<svg xmlns="http://www.w3.org/2000/svg" viewBox="0 0 128 128"><path d="M121.695 73.268v9.95c3.955-7.582 6.196-16.044 6.196-24.986C127.891 26.094 99.26.026 63.958.026 28.658.026.026 26.094.026 58.232c0 .403.028.806.028 1.21l22.96-25.943H36.35L16.597 60.675h6.418v-6.9l13.722-19.47v49.341H23.015V73.268H2.183c5.949 20.276 23.598 36.194 45.98 41.383-1.44 3.298-5.616 11.258-12.56 12.668-8.604 1.764 23.348.428 46.144-13.172 17.512-4.61 31.925-15.843 39.754-30.5H108v-10.38H85.01V59.466L108 33.499h13.002l-19.421 27.176H108v-7.43l13.722-19.394v39.417h-.027zM43.486 76.09a10.518 10.518 0 01-.996-4.533v-27c0-1.613.333-3.123.996-4.533a11.655 11.655 0 012.712-3.679c1.134-1.031 2.49-1.863 4.039-2.467 1.549-.605 3.208-.907 4.98-.907h11.287c1.77 0 3.43.302 4.979.907 1.521.604 2.849 1.41 3.984 2.417L63.212 52.591v-2.897a1.96 1.96 0 00-.664-1.512c-.443-.402-.996-.603-1.66-.603-.664 0-1.217.2-1.66.603a1.96 1.96 0 00-.664 1.512v9.067l-14.192 18.84a10.552 10.552 0 01-.886-1.512v.001zm35.716-4.533c0 1.612-.332 3.123-.997 4.533a11.655 11.655 0 01-2.71 3.679c-1.134 1.031-2.49 1.863-4.039 2.468-1.55.603-3.209.906-4.98.906H55.189c-1.77 0-3.43-.303-4.98-.906-1.549-.605-2.904-1.437-4.039-2.47a12.44 12.44 0 01-1.383-1.51l13.721-18.21v6.372c0 .605.222 1.109.665 1.511.442.403.996.604 1.66.604.663 0 1.217-.2 1.659-.604a1.96 1.96 0 00.664-1.511V53.874l12.81-17.025a11.45 11.45 0 012.212 3.174c.664 1.41.996 2.92.996 4.533v27h.028v.001z"/></svg>