<svg viewBox="0 0 128 128"><path fill-rule="nonzero" d="M26.625 41.128c.408-.653.833-1.295 1.274-1.926h73.536c.441.629.864 1.278 1.273 1.926l12.928-7.488 6.4 11.123-14.163 8.208a45.134 45.134 0 0 1 1.594 11.92v6.423h19.2v12.845h-19.2a44.837 44.837 0 0 1-3.43 17.276l16 9.274-6.4 11.124-16.167-9.364a44.713 44.713 0 0 1-28.403 16.191V77.736h-12.8v50.93a44.713 44.713 0 0 1-28.404-16.197l-16.166 9.364-6.4-11.124 16-9.267a44.96 44.96 0 0 1-3.43-17.283H.667V71.314h19.2V64.89c0-4.13.556-8.124 1.593-11.92L7.297 44.763l6.4-11.123 12.928 7.488zm12.442-14.771c0-14.189 11.461-25.69 25.6-25.69 14.138 0 25.6 11.501 25.6 25.69h-51.2z"/></svg>