<svg viewBox="0 0 128 128"><g fill-rule="nonzero"><path d="M43.148 16.95c-.138-1.137-1.533-1.62-2.343-.81l-7.528 7.528L10.245.654a1.383 1.383 0 0 0-1.946 0L.995 7.94a1.383 1.383 0 0 0 0 1.946L24.027 32.92l-7.563 7.562c-.81.81-.327 2.205.81 2.343L44.87 46.08a1.381 1.381 0 0 0 1.533-1.533L43.148 16.95zm1.74 64.29l-27.614 3.255c-1.137.138-1.62 1.533-.81 2.343l7.563 7.563L.995 117.398a1.383 1.383 0 0 0 0 1.947l7.304 7.286a1.383 1.383 0 0 0 1.946 0l23.032-23.014 7.528 7.528c.81.81 2.205.327 2.343-.81l3.256-27.58a1.364 1.364 0 0 0-1.516-1.516zm38.208-35.177l27.615-3.256c1.137-.138 1.619-1.533.81-2.343l-7.563-7.545L126.99 9.904a1.383 1.383 0 0 0 0-1.946L119.686.67a1.383 1.383 0 0 0-1.947 0L94.707 23.668 87.18 16.14c-.81-.81-2.205-.327-2.343.81l-3.255 27.58a1.369 1.369 0 0 0 1.515 1.533zm20.862 48.32l7.562-7.562c.81-.81.328-2.205-.81-2.343l-27.596-3.256a1.381 1.381 0 0 0-1.533 1.533l3.255 27.597c.138 1.137 1.534 1.62 2.343.81l7.528-7.528 23.032 23.015a1.383 1.383 0 0 0 1.947 0l7.304-7.287a1.383 1.383 0 0 0 0-1.947l-23.032-23.032z"/><path d="M186.775 131.13l-17.957-17.647h-37.083V102h-16.32v11.483H85.6v34.469h83.227l17.948-16.823zM115.415 230h16.32v-34.469h-16.32V230zm-47.333-57.847l17.957 16.823h83.227v-34.46H86.04l-17.957 17.637zm95.342-11.73v22.647H87.986l-12.123-10.917 12.123-11.73h75.438z"/></g></svg>