<svg xmlns="http://www.w3.org/2000/svg" viewBox="0 0 128 128"><path d="M43.056 16.997c-.14-1.146-1.546-1.632-2.362-.816l-7.586 7.586L9.896.573a1.394 1.394 0 00-1.962 0L.573 7.917a1.394 1.394 0 000 1.961L23.785 33.09l-7.622 7.622c-.816.816-.33 2.222.816 2.36l27.813 3.282a1.392 1.392 0 001.545-1.545l-3.281-27.812zm1.753 64.791l-27.83 3.281c-1.146.14-1.632 1.546-.816 2.362l7.622 7.621L.573 118.23a1.394 1.394 0 000 1.962l7.361 7.344a1.394 1.394 0 001.962 0l23.212-23.195 7.586 7.587c.816.816 2.223.33 2.362-.816l3.28-27.795a1.374 1.374 0 00-1.527-1.528v-.001zm38.507-35.451l27.83-3.281c1.146-.14 1.632-1.546.816-2.362l-7.622-7.604 23.212-23.194a1.394 1.394 0 000-1.962L120.191.59a1.394 1.394 0 00-1.962 0L95.017 23.767l-7.586-7.586c-.816-.816-2.223-.33-2.362.816l-3.28 27.795a1.38 1.38 0 001.527 1.545zm21.024 48.698l7.622-7.622c.816-.816.33-2.222-.816-2.36L83.333 81.77a1.392 1.392 0 00-1.545 1.545l3.281 27.812c.14 1.146 1.546 1.632 2.362.816l7.586-7.586 23.212 23.194a1.394 1.394 0 001.962 0l7.361-7.344a1.394 1.394 0 000-1.961L104.34 95.035z"/></svg>