<?xml version="1.0" encoding="UTF-8"?>
<svg width="129px" height="129px" viewBox="0 0 129 129" version="1.1" xmlns="http://www.w3.org/2000/svg" xmlns:xlink="http://www.w3.org/1999/xlink">
    <!-- Generator: Sketch 64 (93537) - https://sketch.com -->
    <title>exit-fullscreen</title>
    <desc>Created with Sketch.</desc>
    <g id="页面-1" stroke="none" stroke-width="1"  fill-rule="evenodd">
        <g id="exit-fullscreen" transform="translate(0.429688, 0.085938)" fill-rule="nonzero">
            <path d="M43.0555556,16.9965278 C42.9166667,15.8506944 41.5104167,15.3645833 40.6944444,16.1805556 L33.1076389,23.7673611 L9.89583333,0.572916667 C9.35763889,0.0347222222 8.47222222,0.0347222222 7.93402778,0.572916667 L0.572916667,7.91666667 C0.0347222222,8.45486111 0.0347222222,9.34027778 0.572916667,9.87847222 L23.7847222,33.0902778 L16.1631944,40.7118056 C15.3472222,41.5277778 15.8333333,42.9340278 16.9791667,43.0729167 L44.7916667,46.3541667 C45.6770833,46.4583333 46.4409722,45.7118056 46.3368056,44.8090278 L43.0555556,16.9965278 Z M44.8090278,81.7881944 L16.9791667,85.0694444 C15.8333333,85.2083333 15.3472222,86.6145833 16.1631944,87.4305556 L23.7847222,95.0520833 L0.572916667,118.229167 C0.0347222222,118.767361 0.0347222222,119.652778 0.572916667,120.190972 L7.93402778,127.534722 C8.47222222,128.072917 9.35763889,128.072917 9.89583333,127.534722 L33.1076389,104.340278 L40.6944444,111.927083 C41.5104167,112.743056 42.9166667,112.256944 43.0555556,111.111111 L46.3368056,83.3159722 C46.4409722,82.4305556 45.6944444,81.6840278 44.8090278,81.7881944 Z M83.3159722,46.3368056 L111.145833,43.0555556 C112.291667,42.9166667 112.777778,41.5104167 111.961806,40.6944444 L104.340278,33.0902778 L127.552083,9.89583333 C128.090278,9.35763889 128.090278,8.47222222 127.552083,7.93402778 L120.190972,0.590277778 C119.652778,0.0520833333 118.767361,0.0520833333 118.229167,0.590277778 L95.0173611,23.7673611 L87.4305556,16.1805556 C86.6145833,15.3645833 85.2083333,15.8506944 85.0694444,16.9965278 L81.7881944,44.7916667 C81.6840278,45.6944444 82.4305556,46.4409722 83.3159722,46.3368056 Z M104.340278,95.0347222 L111.961806,87.4131944 C112.777778,86.5972222 112.291667,85.1909722 111.145833,85.0520833 L83.3333333,81.7708333 C82.4479167,81.6666667 81.6840278,82.4131944 81.7881944,83.3159722 L85.0694444,111.128472 C85.2083333,112.274306 86.6145833,112.760417 87.4305556,111.944444 L95.0173611,104.357639 L118.229167,127.552083 C118.767361,128.090278 119.652778,128.090278 120.190972,127.552083 L127.552083,120.208333 C128.090278,119.670139 128.090278,118.784722 127.552083,118.246528 L104.340278,95.0347222 Z" id="形状"></path>
        </g>
    </g>
</svg>