<?xml version="1.0" encoding="UTF-8"?>
<svg width="128px" height="128px" viewBox="0 0 128 128" version="1.1" xmlns="http://www.w3.org/2000/svg" xmlns:xlink="http://www.w3.org/1999/xlink">
    <!-- Generator: Sketch 64 (93537) - https://sketch.com -->
    <title>fullscreen</title>
    <desc>Created with Sketch.</desc>
    <g id="页面-1" stroke="none" stroke-width="1"  fill-rule="evenodd">
        <g id="fullscreen"  fill-rule="nonzero">
            <path d="M23.5507246,14.0217391 L31.5036232,6.06884058 C32.3550725,5.2173913 31.8478261,3.75 30.6521739,3.60507246 L1.63043478,0.18115942 C0.706521739,0.0724637681 -0.0905797101,0.851449275 0.018115942,1.79347826 L3.44202899,30.8152174 C3.58695652,32.0108696 5.05434783,32.5181159 5.9057971,31.6666667 L13.8224638,23.75 L38.0434783,47.9528986 C38.6050725,48.5144928 39.5289855,48.5144928 40.0905797,47.9528986 L47.7717391,40.2898551 C48.3333333,39.7282609 48.3333333,38.8043478 47.7717391,38.2427536 L23.5507246,14.0217391 Z M87.4456522,47.9528986 C88.0072464,48.5144928 88.9311594,48.5144928 89.4927536,47.9528986 L113.713768,23.75 L121.630435,31.6666667 C122.481884,32.5181159 123.949275,32.0108696 124.094203,30.8152174 L127.518116,1.8115942 C127.626812,0.887681159 126.847826,0.0905797101 125.905797,0.199275362 L96.884058,3.62318841 C95.6884058,3.76811594 95.1811594,5.23550725 96.0326087,6.08695652 L103.985507,14.0398551 L79.7644928,38.2246377 C79.2028986,38.7862319 79.2028986,39.7101449 79.7644928,40.2717391 L87.4456522,47.9528986 L87.4456522,47.9528986 Z M124.094203,97.0833333 C123.949275,95.8876812 122.481884,95.3804348 121.630435,96.2318841 L113.713768,104.148551 L89.4927536,79.9456522 C88.9311594,79.384058 88.0072464,79.384058 87.4456522,79.9456522 L79.7644928,87.6086957 C79.2028986,88.1702899 79.2028986,89.0942029 79.7644928,89.6557971 L103.985507,113.876812 L96.0326087,121.82971 C95.1811594,122.681159 95.6884058,124.148551 96.884058,124.293478 L125.905797,127.717391 C126.82971,127.826087 127.626812,127.047101 127.518116,126.105072 L124.094203,97.0833333 Z M40.0905797,79.9456522 C39.5289855,79.384058 38.6050725,79.384058 38.0434783,79.9456522 L13.8224638,104.148551 L5.9057971,96.2318841 C5.05434783,95.3804348 3.58695652,95.8876812 3.44202899,97.0833333 L0.018115942,126.086957 C-0.0905797101,127.01087 0.688405797,127.807971 1.63043478,127.699275 L30.6521739,124.275362 C31.8478261,124.130435 32.3550725,122.663043 31.5036232,121.811594 L23.5507246,113.876812 L47.7717391,89.673913 C48.3333333,89.1123188 48.3333333,88.1884058 47.7717391,87.6268116 L40.0905797,79.9456522 L40.0905797,79.9456522 Z" id="形状"></path>
        </g>
    </g>
</svg>