<svg xmlns="http://www.w3.org/2000/svg" viewBox="0 0 128 128"><path d="M23.55 14.022l7.954-7.953c.851-.852.344-2.319-.852-2.464L1.63.181A1.453 1.453 0 00.018 1.793l3.424 29.022c.145 1.196 1.612 1.703 2.464.852l7.916-7.917 24.221 24.203a1.454 1.454 0 002.048 0l7.68-7.663a1.454 1.454 0 000-2.047l-24.22-24.221h-.001zm63.896 33.93c.567.562 1.48.562 2.047 0l24.22-24.202 7.917 7.917c.852.851 2.32.344 2.464-.852l3.424-29.003a1.453 1.453 0 00-1.612-1.613L96.884 3.623c-1.196.145-1.703 1.613-.851 2.464l7.953 7.953-24.222 24.185a1.454 1.454 0 000 2.047l7.682 7.68zm36.648 49.131c-.145-1.195-1.612-1.703-2.464-.851l-7.916 7.917-24.221-24.203a1.454 1.454 0 00-2.047 0l-7.682 7.663a1.454 1.454 0 000 2.047l24.222 24.22-7.953 7.954c-.852.851-.345 2.319.851 2.463l29.022 3.424a1.453 1.453 0 001.612-1.612l-3.424-29.022zM40.091 79.946a1.454 1.454 0 00-2.048 0l-24.22 24.203-7.917-7.917c-.852-.852-2.319-.344-2.464.851L.018 126.087a1.453 1.453 0 001.612 1.612l29.022-3.424c1.196-.145 1.703-1.612.852-2.463l-7.953-7.935 24.22-24.203a1.454 1.454 0 000-2.047l-7.68-7.681z"/></svg>