<svg xmlns="http://www.w3.org/2000/svg" viewBox="0 0 128 128"><path d="M63.943.044C28.614.029 0 29.298 0 65.424c0 28.567 17.9 52.85 42.829 61.769 3.357.863 2.842-1.579 2.842-3.246v-11.33C26.286 114.942 25.5 101.813 24.2 99.62c-2.629-4.59-8.843-5.76-6.986-7.953 4.415-2.325 8.915.584 14.129 8.465 3.771 5.716 11.128 4.751 14.857 3.8a18.55 18.55 0 014.957-8.888C31.071 91.36 22.7 78.816 22.7 63.904c0-7.237 2.329-13.89 6.9-19.255-2.914-8.845.271-16.418.7-17.544 8.3-.76 16.929 6.082 17.6 6.623 4.714-1.301 10.1-1.988 16.129-1.988 6.057 0 11.457.716 16.214 2.032 1.614-1.257 9.614-7.135 17.328-6.418.415 1.126 3.529 8.523.786 17.251 4.629 5.38 6.986 12.09 6.986 19.342 0 14.942-8.429 27.5-28.572 31.126a18.86 18.86 0 015.443 13.304v16.448c.115 1.315 0 2.617 2.143 2.617 25.3-8.729 43.514-33.188 43.514-62.003 0-36.14-28.628-65.395-63.928-65.395z"/></svg>