<svg viewBox="0 0 128 113"><path fill-rule="nonzero" d="M47.134 44.904h76.433c.7 0 1.274-.573 1.274-1.273v-8.918c0-.7-.573-1.274-1.274-1.274H47.134c-.7 0-1.274.574-1.274 1.274v8.918c0 .7.573 1.273 1.274 1.273zM45.86 77.39c0 .7.573 1.273 1.274 1.273h76.433c.7 0 1.274-.573 1.274-1.273V68.47c0-.7-.573-1.274-1.274-1.274H47.134c-.7 0-1.274.574-1.274 1.274v8.918zM126.115 0H1.274C.574 0 0 .573 0 1.274v8.917c0 .7.573 1.274 1.274 1.274h124.84c.701 0 1.275-.573 1.275-1.274V1.274c0-.7-.574-1.274-1.274-1.274zm0 100.637H1.274c-.7 0-1.274.573-1.274 1.274v8.917c0 .7.573 1.274 1.274 1.274h124.84c.701 0 1.275-.573 1.275-1.274v-8.917c0-.7-.574-1.274-1.274-1.274zM4.84 76.767l24.888-19.601c.717-.558.717-1.64 0-2.214L4.841 35.334c-.924-.732-2.293-.08-2.293 1.1v39.219c0 1.178 1.353 1.847 2.293 1.115z"/></svg>