<svg viewBox="0 0 128 123"><g fill-rule="nonzero"><path d="M95.785 111.846h-5.353 2.12a3.43 3.43 0 0 0 3.233-3.43v3.43zm-53.141 0h-5.353 2.12a3.43 3.43 0 0 0 3.233-3.43v3.43zM74.568 90.47h-5.353 2.12a3.43 3.43 0 0 1 3.233 3.43v-3.43zm31.924-21.4h5.354-2.12a3.43 3.43 0 0 0-3.234 3.429v-3.43zm-85.262 0h-5.353 2.12A3.43 3.43 0 0 1 21.23 72.5v-3.43zm31.99 21.4h5.353-2.12a3.43 3.43 0 0 0-3.233 3.43v-3.43z"/><path d="M121.82 69.018a5.348 5.348 0 0 0 4.175-1.557 5.356 5.356 0 0 0 0-7.579L67.735 1.636A5.372 5.372 0 0 0 63.862.065a5.319 5.319 0 0 0-3.874 1.571L1.727 59.882a5.66 5.66 0 0 0-.575.68 5.328 5.328 0 0 0-1.113 3.26 5.351 5.351 0 0 0 5.354 5.353h15.824v44.438a8.915 8.915 0 0 0 8.914 8.913h.065v.013h14.228c4.542 0 8.285-3.403 8.835-7.788v-24.24h21.244l.052 15.968v7.134a8.915 8.915 0 0 0 8.914 8.913h.065v.013h14.162c4.45 0 8.142-3.272 8.81-7.539V69.058"/></g></svg>