<svg xmlns="http://www.w3.org/2000/svg" viewBox="0 0 128 128"><path d="M110.545 75.818v17.455H128v11.636h-17.455v17.455H98.91v-17.455H81.455V93.273h17.454V75.818h11.636zM110.592 6a5.776 5.776 0 015.772 5.777v54.395a34.85 34.85 0 00-11.637-1.99V17.636h-93.09l.005 81.455 54.063-54.068a5.812 5.812 0 017.68-.49l.54.495 20.632 20.655a34.927 34.927 0 00-22.749 45.05l-66.036-.006A5.777 5.777 0 010 104.95V11.777A5.818 5.818 0 015.772 6h104.82zM34.909 29.273c6.427 0 11.636 5.21 11.636 11.636 0 6.427-5.21 11.636-11.636 11.636-6.426 0-11.636-5.21-11.636-11.636 0-6.426 5.21-11.636 11.636-11.636z"/></svg>