<svg width="21" height="24" xmlns="http://www.w3.org/2000/svg"><path d="M10.392 0l10.393 6v12l-10.393 6L0 18V6l10.392-6zm.082 2.4L2.16 7.2v9.6l3.03 1.75 9.127-5.27.039-.02a.96.96 0 011.246.328l.026.044.022.039a.96.96 0 01-.33 1.246l-.043.026-8.166 4.715 3.363 1.942 8.314-4.8V7.2l-3.031-1.75-9.126 5.27-.039.02a.96.96 0 01-1.246-.328l-.027-.044-.02-.039a.96.96 0 01.328-1.246l.044-.026 8.166-4.715L10.474 2.4zm1.886 7.403a.96.96 0 01.965 1.658l-.043.026-4.656 2.688-.039.022a.96.96 0 01-.965-1.658l.044-.026 4.656-2.688.038-.022z"/></svg>