<svg xmlns="http://www.w3.org/2000/svg" viewBox="0 0 128 128"><path d="M112.602 56.637l7.261 4.356a3.02 3.02 0 010 5.183L63.77 99.832 7.676 66.176a3.02 3.02 0 010-5.183l7.262-4.356 48.832 29.3 48.832-29.3zm0 28.394l7.261 4.356a3.02 3.02 0 010 5.183l-52.982 31.79a6.041 6.041 0 01-6.222 0L7.676 94.57a3.02 3.02 0 010-5.183l7.262-4.356 48.832 29.3 48.832-29.3zM66.875 1.111l52.988 31.79a3.02 3.02 0 010 5.183L63.77 71.74 7.676 38.084a3.02 3.02 0 010-5.183L60.66 1.11a6.041 6.041 0 016.222 0h-.006z"/></svg>