<svg viewBox="0 0 128 128"><g fill-rule="nonzero"><path d="M126.034 30.323c-.332-.374-.664-.757-1.038-1.072-.996-.834-2.06-1.557-3.243-2.136-17.396-8.536-34.774-17.106-52.17-25.643C68.085.75 66.503.212 64.834 0h-1.617c-4.043.74-7.515 2.885-11.115 4.638A8065.289 8065.289 0 0 0 4.868 27.694C2.434 28.902.536 30.817.094 33.744c-.017.103-.06.196-.094.29v1.243c.255 1.336.68 2.604 1.583 3.668.315.357.613.74.979 1.038.961.774 1.932 1.523 3.055 2.077 17.523 8.604 35.021 17.242 52.562 25.82 1.48.733 3.004 1.448 4.715 1.6a9.015 9.015 0 0 0 4.893-.884c17.736-8.673 35.456-17.345 53.183-26.026.596-.298 1.217-.544 1.779-.893 1.66-.996 3.217-2.145 4.094-3.94.374-.767.544-1.635.817-2.46v-1.243c-.273-1.353-.707-2.647-1.626-3.71z"/><path d="M120.06 56.247c-1.907-.332-3.77-.145-5.524.723-3.37 1.677-6.715 3.421-10.11 5.056-13.328 6.4-26.681 12.765-40.017 19.157-.383.179-.69.204-1.09.017-16.34-7.923-32.672-15.83-49.004-23.745-2.74-1.327-5.643-1.727-8.604-1.174-3.039.579-5.15 3.09-5.575 6.28-.025.17-.093.35-.136.52v1.617c.255 1.31.68 2.553 1.54 3.617.817 1.004 1.77 1.83 2.92 2.391C22.409 79.61 40.366 88.52 58.34 97.37c1.439.707 2.928 1.404 4.605 1.54 1.685.137 3.285-.144 4.783-.859 18.46-8.834 36.919-17.66 55.353-26.536 2.476-1.192 3.88-3.302 4.442-5.966.051-.196.094-.4.145-.596v-1.498c-.17-.544-.28-1.123-.502-1.642-1.302-3.209-3.762-4.97-7.106-5.566z"/><path d="M120.051 84.928c-1.898-.332-3.77-.145-5.523.723-3.413 1.694-6.8 3.455-10.23 5.115-13.268 6.366-26.536 12.69-39.804 19.055-.485.222-.86.213-1.32-.017-16.238-7.88-32.485-15.744-48.731-23.634-2.511-1.217-5.15-1.574-7.873-1.361-3.166.238-5.608 2.544-6.298 5.753-.093.4-.187.791-.272 1.191v1.617c.255 1.285.664 2.51 1.498 3.566.834 1.047 1.821 1.89 3.013 2.477 17.923 8.885 35.855 17.778 53.804 26.621 1.532.757 3.14 1.455 4.894 1.617h1.242c1.438-.23 2.792-.68 4.102-1.345 1.685-.85 3.464-1.532 5.166-2.349 16.383-7.872 32.758-15.761 49.115-23.642 2.596-1.251 4.102-3.362 4.68-6.153.043-.179.086-.358.137-.536v-1.498c-.17-.545-.28-1.124-.502-1.643-1.285-3.208-3.753-4.97-7.098-5.557z"/></g></svg>