<svg xmlns="http://www.w3.org/2000/svg" viewBox="0 0 513 201"><g fill="none" fill-rule="nonzero"><path fill="#EEE" d="M7.483 29.48s.422-.047.656.234c.234.281.516 4.218 1.547 5.296 1.031 1.078 5.203.469 5.203 1.875 0 1.125-3.877 1.246-5.189 2.324-1.312 1.078-.562 5.624-2.17 5.457-1.259-.131-.375-3.75-1.922-5.203C4.061 38.01.312 38.291.312 36.979s3.843-.516 5.156-2.015c1.312-1.5.75-5.484 2.015-5.484z"/><path fill="#B1AFAE" d="M150.804 43.306s.255-.028.396.141c.141.169.311 2.546.934 3.197.622.651 3.14.283 3.14 1.132 0 .679-2.34.752-3.132 1.403-.792.651-.339 3.395-1.309 3.293-.76-.079-.226-2.263-1.16-3.14-.934-.877-3.197-.707-3.197-1.499 0-.792 2.32-.311 3.112-1.216.791-.906.452-3.311 1.216-3.311z"/><path fill="#EEE" d="M507.965 45.204s.289-.032.45.161c.161.193.353 2.891 1.06 3.63.707.739 3.566.321 3.566 1.285 0 .771-2.657.854-3.557 1.593-.9.739-.385 3.855-1.487 3.74-.863-.09-.257-2.57-1.317-3.566s-3.63-.803-3.63-1.703 2.634-.353 3.534-1.381c.899-1.028.514-3.759 1.381-3.759z"/><path fill="#B1AFAE" d="M368.571 60.794s.289-.032.45.161c.161.193.353 2.891 1.06 3.63.707.739 3.566.321 3.566 1.285 0 .771-2.657.854-3.557 1.593-.9.739-.386 3.855-1.487 3.74-.863-.09-.257-2.57-1.317-3.566s-3.63-.803-3.63-1.703 2.634-.353 3.534-1.381c.899-1.028.514-3.759 1.381-3.759z"/><circle cx="175.1" cy="4.965" r="4.203" fill="#EEE"/><circle cx="485.584" cy="120.094" r="2.634" fill="#EEE"/><circle cx="265.913" cy="114.441" r="86.028" fill="#FFF"/><path fill="#EEE" d="M265.913 200.469c28.044 0 52.877-13.696 68.215-34.751l-39.807-94.67h-56.818l-39.807 94.67c15.34 21.056 40.173 34.751 68.217 34.751z"/><path fill="#FDFDFD" d="M265.913 200.469c20.08 0 38.512-7.028 52.997-18.742L288.502 72.114h-45.179l-30.408 109.613c14.486 11.714 32.917 18.742 52.998 18.742z"/><path fill="#EEE" d="M266.315 72.114h-10.763l-14.518 123.922c.051.244.105.481.156.723 8.203 2.964 15.897 3.71 24.724 3.71s16.479-.079 24.724-3.71c.052-.242.105-.48.156-.723L276.276 72.114h-9.961z"/><path fill="#D8D8D8" d="M309.965 50.357c-.322-23.854-19.748-43.094-43.678-43.094-23.93 0-43.356 19.24-43.677 43.094h87.355z"/><path fill="#FFF" d="M222.595 50.133h87.385v7.182h-87.385z"/><path fill="#D8D8D8" d="M314.769 57.296h-96.962c-5.454 0-9.876 4.422-9.876 9.876s4.421 9.876 9.876 9.876h8.875c-.001.032-.009.061-.009.094v3.367a3.816 3.816 0 1 0 7.632 0v-3.367c0-.032-.009-.062-.009-.094h63.987c-.001.032-.009.061-.009.094v3.367a3.816 3.816 0 1 0 7.632 0v-3.367c0-.032-.009-.062-.009-.094h8.875c5.454 0 9.876-4.422 9.876-9.876s-4.425-9.876-9.879-9.876z"/><g fill="#FDFDFD" transform="translate(242 63)"><circle cx="4.404" cy="4.415" r="3.964"/><circle cx="24.288" cy="4.415" r="3.964"/><circle cx="44.172" cy="4.415" r="3.964"/></g><path fill="#D8D8D8" d="M430 40h17v147h-17V40zM126.619 148.549h-17.822v38.158H91.694v-38.158H26.705v-12.055l61.659-96.818h20.433v94.161h17.822v14.712zm-34.925-14.712V72.233c0-4.366.12-9.396.36-15.092h-.36c-.841 2.405-2.61 6.17-5.311 11.295l-41.496 65.4h46.807v.001z"/></g></svg>