<svg xmlns="http://www.w3.org/2000/svg" fill='#409eff' viewBox="0 0 128 128"><path d="M64.426 0l55.425 32v64l-55.425 32L9 96V32L64.426 0zm0 12.19L19.557 38.095v51.81L34.793 98.7l42.839-24.588c2.932-1.683 6.682-.684 8.375 2.23 1.693 2.916.688 6.644-2.244 8.327l-36.744 21.09 17.407 10.05 44.868-25.905v-51.81L93.714 29.1l-42.67 24.636a6.095 6.095 0 01-6.095-10.557l36.575-21.117-17.098-9.872zm21.642 39.315a6.095 6.095 0 01-2.231 8.326L51.109 78.726a6.095 6.095 0 01-6.095-10.557l32.728-18.895a6.095 6.095 0 018.326 2.23z"/></svg>