<svg xmlns="http://www.w3.org/2000/svg" viewBox="0 0 128 128"><path d="M64.426 0l55.425 32v64l-55.425 32L9 96V32L64.426 0zm.053 9.956L17.676 36.978v54.044l46.803 27.022 46.804-27.022V36.978L64.48 9.956zm.006 8.533l15.02 8.671-32.129 18.55a5.354 5.354 0 005.278 9.317l.077-.043 37.482-21.641 13.686 7.901v45.512L64.485 109.51l-15.29-8.828L81.47 82.157a5.337 5.337 0 001.972-7.314c-1.473-2.535-4.716-3.42-7.28-2.003l-.077.043-37.631 21.6-13.384-7.727V41.244L64.485 18.49zm20.181 33.849a5.689 5.689 0 00-7.69-2.129l-.08.046-30.547 17.636a5.689 5.689 0 005.607 9.9l.082-.046 30.546-17.636a5.689 5.689 0 002.082-7.771z"/></svg>